# xmcd
#
# Track frame offsets:
#	150
#	44174
#	75255
#
# Disc length: 1587 seconds
#
# Revision: 0
# Processed by: cddbd v1.4PL0 Copyright (c) Steve Scherf et al.
# Submitted via: EasyCDDAExtractor 4.6.9.1
#
DISCID=1b063103
DTITLE=Gary Barlow - Stronger
DYEAR=1900
DGENRE=
TTITLE0=Stronger(Mark!'s In Between Vocal)
TTITLE1=Looking For A Change(Stronger CD Single Version)
TTITLE2=Media
EXTD=
EXTT0=
EXTT1=
EXTT2=
PLAYORDER=
